<?xml version="1.0" encoding="UTF-8" standalone="no"?>
<!-- Created with Inkscape (http://www.inkscape.org/) -->

<svg
   width="126mm"
   height="51mm"
   viewBox="0 0 126 51"
   version="1.1"
   id="svg1"
   xml:space="preserve"
   inkscape:version="1.4.2 (ebf0e940d0, 2025-05-08)"
   sodipodi:docname="celery.svg"
   xmlns:inkscape="http://www.inkscape.org/namespaces/inkscape"
   xmlns:sodipodi="http://sodipodi.sourceforge.net/DTD/sodipodi-0.dtd"
   xmlns="http://www.w3.org/2000/svg"
   xmlns:svg="http://www.w3.org/2000/svg"><sodipodi:namedview
     id="namedview1"
     pagecolor="#ffffff"
     bordercolor="#000000"
     borderopacity="0.25"
     inkscape:showpageshadow="2"
     inkscape:pageopacity="0.0"
     inkscape:pagecheckerboard="0"
     inkscape:deskcolor="#d1d1d1"
     inkscape:document-units="mm"
     inkscape:zoom="1.069618"
     inkscape:cx="316.93558"
     inkscape:cy="325.81725"
     inkscape:window-width="1920"
     inkscape:window-height="1052"
     inkscape:window-x="0"
     inkscape:window-y="0"
     inkscape:window-maximized="1"
     inkscape:current-layer="layer1"
     showguides="true"><sodipodi:guide
       position="105.87644,-3.5772307"
       orientation="0,-1"
       id="guide1"
       inkscape:locked="false" /><sodipodi:guide
       position="110.60241,-57.446691"
       orientation="0,-1"
       id="guide2"
       inkscape:locked="false" /><sodipodi:guide
       position="68.303005,0.84407935"
       orientation="1,0"
       id="guide3"
       inkscape:locked="false" /><sodipodi:guide
       position="41.804253,0.47621935"
       orientation="1,0"
       id="guide4"
       inkscape:locked="false" /><sodipodi:guide
       position="93.306145,-17.01398"
       orientation="0,-1"
       id="guide5"
       inkscape:locked="false" /><sodipodi:guide
       position="95.278001,-30.43367"
       orientation="0,-1"
       id="guide6"
       inkscape:locked="false" /><sodipodi:guide
       position="106.32442,-43.990011"
       orientation="0,-1"
       id="guide7"
       inkscape:locked="false" /><sodipodi:guide
       position="166.64709,-39.604241"
       orientation="1,0"
       id="guide9"
       inkscape:locked="false" /><sodipodi:guide
       position="176.80231,-14.0254"
       orientation="1,0"
       id="guide10"
       inkscape:locked="false" /><sodipodi:guide
       position="142.90283,-20.36396"
       orientation="1,0"
       id="guide11"
       inkscape:locked="false" /><sodipodi:guide
       position="156.54952,-21.42948"
       orientation="1,0"
       id="guide12"
       inkscape:locked="false" /></sodipodi:namedview><defs
     id="defs1" /><g
     inkscape:label="Layer 1"
     inkscape:groupmode="layer"
     id="layer1"><rect
       style="fill:#ffffff;stroke-width:0.32165"
       id="rect1"
       width="143.74577"
       height="61.010597"
       x="-8.456912"
       y="-6.433363" /><g
       id="g30"
       transform="matrix(0.92762263,0,0,0.92762263,-38.392026,-50.063495)"><path
         d="M 68.302808,54.57703 A 26.561562,26.934731 0 0 0 45.317647,68.013936 H 146.65513 A 26.913334,26.934729 0 0 1 169.85216,54.57703 Z"
         style="fill:#b6de64;stroke-width:1.88911"
         id="path14" /><path
         d="m 41.804167,83.360286 a 26.561562,26.934731 0 0 0 3.502111,11.629782 H 146.64376 a 26.913334,26.934729 0 0 1 -3.61166,-13.478248 26.913334,26.934729 0 0 1 0,-0.07803 H 41.804167 Z"
         style="fill:#b6de64;stroke-width:1.73895"
         id="path25" /><path
         d="M 41.804167,81.433789 H 143.0321 a 26.913334,26.934729 0 0 1 3.62303,-13.419853 H 45.317647 a 26.561562,26.934731 0 0 0 -3.51348,11.649418 z"
         style="fill:#a9cc54;stroke-width:0.755583"
         id="path26" /><path
         d="M 168.53597,108.40992 A 26.913334,26.934729 0 0 1 146.64376,94.990068 H 45.306278 a 26.561562,26.934731 0 0 0 21.60695,13.419852 z"
         style="fill:#a9cc54;stroke-width:0.835014"
         id="path21" /><path
         d="m 169.98807,94.990068 v 0.01964 a 6.9434266,6.7184801 0 0 1 0.36381,0.0093 v -0.02894 z"
         style="fill:#a9cc54;stroke-width:0.835014"
         id="path19" /><path
         id="path11-3-3-0"
         style="fill:#ddf4a4;fill-opacity:1;stroke-width:0.869268"
         d="m 169.81588,54.508745 a 26.913334,26.934729 0 0 0 -26.91308,26.93479 26.913334,26.934729 0 0 0 26.91308,26.934785 26.913334,26.934729 0 0 0 0.0181,0 6.9434266,6.7184801 0 0 0 0.0248,0 6.9434266,6.7184801 0 0 0 6.94325,-6.71845 6.9434266,6.7184801 0 0 0 -6.94325,-6.718449 v -0.0202 a 13.179998,13.488013 0 0 1 -0.12919,5.2e-4 13.179998,13.488013 0 0 1 -13.18007,-13.48807 13.179998,13.488013 0 0 1 13.18007,-13.488066 13.179998,13.488013 0 0 1 0.12919,5.17e-4 v -5.17e-4 a 6.9434266,6.7184801 0 0 0 6.94325,-6.718453 6.9434266,6.7184801 0 0 0 -6.94325,-6.718453 26.913334,26.934729 0 0 0 -0.0429,0 z" /></g></g></svg>
